<svg width="73" height="73" viewBox="0 0 73 73" fill="none" xmlns="http://www.w3.org/2000/svg">
<path d="M53.3586 11.9234C51.848 11.9244 50.346 12.1503 48.9019 12.5935L45.7853 9.47689C45.5418 9.23345 45.2115 9.09669 44.8672 9.09669C44.5229 9.09669 44.1926 9.23345 43.9491 9.47689L40.6092 12.8013L37.464 9.6561C35.6391 7.82594 33.4712 6.37351 31.0845 5.3819C28.6977 4.39028 26.1389 3.87892 23.5543 3.87708C20.9698 3.87524 18.4102 4.38294 16.022 5.37116C13.6339 6.35937 11.4639 7.80871 9.63638 9.63626C7.80883 11.4638 6.35949 13.6337 5.37128 16.0219C4.38307 18.4101 3.87536 20.9696 3.8772 23.5542C3.87904 26.1387 4.3904 28.6976 5.38202 31.0843C6.37364 33.4711 7.82606 35.6389 9.65622 37.4639L12.8014 40.609L9.46922 43.9412C9.22578 44.1847 9.08902 44.515 9.08902 44.8593C9.08902 45.2036 9.22578 45.5339 9.46922 45.7774L12.5858 48.894C12.1428 50.339 11.917 51.8419 11.9157 53.3533C11.9152 56.4124 12.8219 59.403 14.5212 61.9468C16.2204 64.4906 18.6359 66.4733 21.462 67.6442C24.2882 68.8151 27.3981 69.1216 30.3985 68.5249C33.3988 67.9283 36.1549 66.4552 38.318 64.2921C40.4811 62.1289 41.9542 59.3729 42.5509 56.3725C43.1475 53.3722 42.841 50.2622 41.6701 47.4361C40.4992 44.6099 38.5165 42.1945 35.9727 40.4952C33.4289 38.796 30.4384 37.8893 27.3792 37.8898C25.8689 37.8912 24.367 38.1161 22.9225 38.5573L19.8059 35.4407C19.5624 35.1973 19.2322 35.0605 18.8878 35.0605C18.5435 35.0605 18.2132 35.1973 17.9697 35.4407L14.6376 38.7729L11.4924 35.6277C8.29186 32.4271 6.49381 28.0863 6.49381 23.56C6.49381 19.0337 8.29186 14.6928 11.4924 11.4923C14.693 8.29174 19.0338 6.49368 23.5601 6.49368C28.0864 6.49368 32.4273 8.29174 35.6278 11.4923L38.773 14.6375L35.4408 17.9696C35.1974 18.2131 35.0606 18.5434 35.0606 18.8877C35.0606 19.232 35.1974 19.5623 35.4408 19.8058L38.5574 22.9224C38.1142 24.3665 37.8884 25.8685 37.8873 27.3791C37.8868 30.4382 38.7935 33.4288 40.4928 35.9726C42.192 38.5164 44.6074 40.4991 47.4336 41.67C50.2598 42.8409 53.3697 43.1474 56.3701 42.5507C59.3704 41.9541 62.1265 40.481 64.2896 38.3179C66.4527 36.1548 67.9258 33.3987 68.5225 30.3984C69.1191 27.398 68.8126 24.2881 67.6417 21.4619C66.4708 18.6357 64.4881 16.2203 61.9443 14.521C59.4005 12.8218 56.41 11.9151 53.3508 11.9156L53.3586 11.9234ZM18.8865 38.1963L21.6603 40.9649C21.8342 41.1396 22.0544 41.2613 22.2949 41.3155C22.5354 41.3698 22.7865 41.3545 23.0186 41.2713C25.075 40.5125 27.2938 40.3032 29.4559 40.6639C31.618 41.0246 33.6486 41.943 35.3473 43.3283L33.5111 45.1645C31.7503 43.8239 29.6001 43.0944 27.387 43.0867C25.3556 43.0867 23.3697 43.6891 21.6806 44.8177C19.9915 45.9462 18.6749 47.5503 17.8974 49.4271C17.1199 51.3038 16.9163 53.369 17.3124 55.3615C17.7086 57.3539 18.6866 59.1842 20.1229 60.6208C21.5591 62.0574 23.3892 63.0359 25.3815 63.4326C27.3739 63.8292 29.4391 63.6262 31.3161 62.8491C33.193 62.0721 34.7974 60.7559 35.9264 59.0671C37.0554 57.3782 37.6583 55.3925 37.6588 53.3611C37.6493 51.034 36.8416 48.7806 35.3707 46.9773L37.2069 45.1411C39.163 47.4335 40.2433 50.345 40.256 53.3585C40.263 55.2404 39.8572 57.1009 39.0673 58.8089C38.2773 60.517 37.1223 62.031 35.6837 63.2442C34.2451 64.4575 32.5579 65.3405 30.7411 65.8309C28.9242 66.3214 27.0219 66.4074 25.1682 66.0829C23.3145 65.7585 21.5545 65.0314 20.0123 63.9529C18.4701 62.8745 17.1832 61.4709 16.2422 59.8411C15.3013 58.2114 14.7293 56.395 14.5665 54.5202C14.4036 52.6454 14.654 50.7577 15.2998 48.9901C15.3833 48.7582 15.3991 48.5073 15.3453 48.2668C15.2915 48.0262 15.1703 47.806 14.996 47.6318L12.2248 44.858L18.8865 38.1963ZM35.0616 53.3611C35.0616 54.879 34.6115 56.3628 33.7682 57.6249C32.9249 58.887 31.7263 59.8706 30.324 60.4515C28.9216 61.0324 27.3785 61.1844 25.8898 60.8882C24.4011 60.5921 23.0336 59.8612 21.9603 58.7879C20.8869 57.7145 20.156 56.3471 19.8599 54.8583C19.5638 53.3696 19.7157 51.8265 20.2966 50.4242C20.8775 49.0218 21.8612 47.8232 23.1232 46.9799C24.3853 46.1366 25.8691 45.6865 27.387 45.6865C29.422 45.6879 31.3733 46.4969 32.8123 47.9358C34.2512 49.3748 35.0603 51.3261 35.0616 53.3611ZM53.3586 40.2558C50.3452 40.2428 47.4338 39.1625 45.1412 37.2068L46.9774 35.3706C48.7798 36.8413 51.0323 37.649 53.3586 37.6587C55.3903 37.6592 57.3765 37.0572 59.066 35.9288C60.7555 34.8005 62.0725 33.1964 62.8503 31.3195C63.6282 29.4427 63.832 27.3773 63.4359 25.3846C63.0399 23.3919 62.0618 21.5614 60.6254 20.1246C59.1889 18.6878 57.3587 17.7092 55.3661 17.3127C53.3735 16.9162 51.3081 17.1194 49.431 17.8968C47.5539 18.6742 45.9495 19.9907 44.8207 21.6799C43.6919 23.3692 43.0895 25.3552 43.0895 27.3869C43.0971 29.6 43.8266 31.7502 45.1672 33.511L43.331 35.3472C41.9457 33.6485 41.0273 31.6179 40.6666 29.4558C40.3059 27.2937 40.5153 25.0749 41.274 23.0185C41.3575 22.7866 41.3733 22.5357 41.3195 22.2952C41.2657 22.0546 41.1445 21.8344 40.9702 21.6602L38.1964 18.8864L44.8581 12.2247L47.6319 14.9959C47.8061 15.1702 48.0264 15.2913 48.2669 15.3451C48.5074 15.399 48.7583 15.3832 48.9902 15.2997C50.7554 14.6615 52.6389 14.4175 54.5085 14.5847C56.3781 14.7519 58.1884 15.3263 59.8124 16.2676C61.4364 17.2089 62.8346 18.4942 63.909 20.0334C64.9833 21.5725 65.7078 23.3282 66.0314 25.1771C66.355 27.0261 66.2701 28.9234 65.7824 30.736C65.2947 32.5486 64.4162 34.2325 63.2086 35.6694C62.0009 37.1064 60.4933 38.2616 58.7917 39.0539C57.0901 39.8462 55.2357 40.2565 53.3586 40.2558ZM45.6866 27.3869C45.6866 25.8689 46.1368 24.385 46.9802 23.1229C47.8236 21.8607 49.0224 20.877 50.4249 20.2962C51.8274 19.7154 53.3706 19.5636 54.8594 19.86C56.3482 20.1563 57.7157 20.8875 58.7889 21.9611C59.8621 23.0346 60.5928 24.4024 60.8887 25.8913C61.1845 27.3802 61.0322 28.9233 60.4509 30.3256C59.8696 31.728 58.8855 32.9264 57.6231 33.7694C56.3607 34.6124 54.8766 35.062 53.3586 35.0615C51.3241 35.0594 49.3735 34.2501 47.9351 32.8112C46.4966 31.3723 45.688 29.4215 45.6866 27.3869Z" fill="#1B1E21"/>
</svg>
