<svg width="74" height="74" viewBox="0 0 74 74" fill="none" xmlns="http://www.w3.org/2000/svg">
<path d="M61.5012 58.8971V54.9584C61.5012 54.6114 61.3633 54.2785 61.1179 54.0331C60.8725 53.7877 60.5397 53.6499 60.1927 53.6499H56.4215L58.2979 36.7514C58.3905 35.9139 58.3057 35.0663 58.0492 34.2638C57.7926 33.4612 57.37 32.7216 56.8088 32.0931C55.9727 31.181 54.8651 30.5624 53.65 30.3292V8.69122C53.6486 7.42771 53.1461 6.21634 52.2526 5.32291C51.3592 4.42947 50.1478 3.92692 48.8843 3.92554H20.9366C20.7647 3.92523 20.5943 3.95882 20.4354 4.02438C20.2764 4.08994 20.1319 4.18619 20.0102 4.30763L6.92482 17.393C6.80338 17.5147 6.70713 17.6592 6.64157 17.8182C6.57601 17.9771 6.54242 18.1475 6.54273 18.3194V61.9695C6.54411 63.233 7.04665 64.4444 7.94009 65.3378C8.83353 66.2313 10.0449 66.7338 11.3084 66.7352H37.9476V68.0437C37.9476 68.3908 38.0854 68.7236 38.3308 68.969C38.5762 69.2144 38.9091 69.3523 39.2561 69.3523H65.4268C65.7738 69.3523 66.1067 69.2144 66.3521 68.969C66.5975 68.7236 66.7353 68.3908 66.7353 68.0437V64.249C66.733 62.8506 66.1845 61.5084 65.2067 60.5086C64.2289 59.5088 62.8992 58.9305 61.5012 58.8971ZM58.8841 58.8971H45.7988V56.28H58.8841V58.8971ZM55.6965 36.4767L53.7861 53.6629H50.9073L48.9968 36.4767C48.943 36.0058 48.99 35.5289 49.1349 35.0776C49.2797 34.6263 49.5191 34.2111 49.8369 33.8596C50.1597 33.5162 50.5494 33.2426 50.9819 33.0556C51.4144 32.8686 51.8807 32.7721 52.3519 32.7721C52.8232 32.7721 53.2894 32.8686 53.7219 33.0556C54.1545 33.2426 54.5441 33.5162 54.8669 33.8596C55.1812 34.2105 55.4176 34.6239 55.5605 35.0727C55.7035 35.5216 55.7499 35.9956 55.6965 36.4636V36.4767ZM19.6281 8.39288V17.0109H11.0101L19.6281 8.39288ZM37.9606 64.1181H11.3084C10.7388 64.1174 10.1927 63.8909 9.78988 63.4881C9.38708 63.0853 9.16049 62.5392 9.1598 61.9695V19.628H20.9366C21.2837 19.628 21.6165 19.4901 21.8619 19.2447C22.1073 18.9993 22.2451 18.6665 22.2451 18.3194V6.54261H48.8843C49.4539 6.5433 50 6.7699 50.4028 7.17269C50.8056 7.57548 51.0322 8.12159 51.0329 8.69122V30.3292C49.8178 30.5624 48.7102 31.181 47.8741 32.0931C47.3129 32.7216 46.8903 33.4612 46.6337 34.2638C46.3771 35.0663 46.2924 35.9139 46.385 36.7514L48.2614 53.6499H44.4902C44.1432 53.6499 43.8104 53.7877 43.565 54.0331C43.3196 54.2785 43.1817 54.6114 43.1817 54.9584V58.884C41.8056 58.9186 40.4957 59.4816 39.5236 60.4561C38.5515 61.4307 37.9918 62.742 37.9606 64.1181ZM64.1183 66.7352H40.5646V64.249C40.5653 63.5204 40.8551 62.8219 41.3702 62.3067C41.8854 61.7915 42.584 61.5018 43.3126 61.5011H61.3703C62.0989 61.5018 62.7975 61.7915 63.3126 62.3067C63.8278 62.8219 64.1176 63.5204 64.1183 64.249V66.7352Z" fill="#1B1E21"/>
<path d="M34.0221 53.6498H30.0965V49.7242C30.097 49.4651 30.0205 49.2117 29.8767 48.996C29.733 48.7804 29.5285 48.6123 29.2891 48.5131C29.0497 48.4139 28.7862 48.388 28.5321 48.4386C28.2779 48.4893 28.0446 48.6143 27.8615 48.7978L24.8624 51.7996V49.7242C24.8628 49.4651 24.7864 49.2117 24.6426 48.996C24.4989 48.7804 24.2943 48.6123 24.0549 48.5131C23.8155 48.4139 23.5521 48.388 23.2979 48.4386C23.0438 48.4893 22.8104 48.6143 22.6274 48.7978L17.3933 54.0319C17.1476 54.2776 17.0095 54.6109 17.0095 54.9584C17.0095 55.3059 17.1476 55.6391 17.3933 55.8848C17.639 56.1305 17.9722 56.2686 18.3197 56.2686C18.6672 56.2686 19.0004 56.1305 19.2462 55.8848L22.2453 52.883V54.9584C22.2454 55.2173 22.3222 55.4704 22.4662 55.6856C22.6101 55.9009 22.8147 56.0686 23.054 56.1675C23.2123 56.2335 23.3823 56.2673 23.5538 56.2669C23.7258 56.2672 23.8961 56.2336 24.0551 56.1681C24.2141 56.1025 24.3585 56.0063 24.4803 55.8848L27.4795 52.883V54.9584C27.4795 55.3054 27.6173 55.6383 27.8627 55.8837C28.1081 56.1291 28.4409 56.2669 28.788 56.2669H34.0221C34.3692 56.2669 34.702 56.1291 34.9474 55.8837C35.1928 55.6383 35.3307 55.3054 35.3307 54.9584C35.3307 54.6113 35.1928 54.2785 34.9474 54.0331C34.702 53.7877 34.3692 53.6498 34.0221 53.6498ZM18.3197 27.4791H41.8733C42.2204 27.4791 42.5532 27.3413 42.7986 27.0959C43.044 26.8505 43.1819 26.5177 43.1819 26.1706C43.1819 25.8236 43.044 25.4907 42.7986 25.2453C42.5532 24.9999 42.2204 24.8621 41.8733 24.8621H18.3197C17.9727 24.8621 17.6398 24.9999 17.3944 25.2453C17.149 25.4907 17.0112 25.8236 17.0112 26.1706C17.0112 26.5177 17.149 26.8505 17.3944 27.0959C17.6398 27.3413 17.9727 27.4791 18.3197 27.4791ZM18.3197 35.3304H41.8733C42.2204 35.3304 42.5532 35.1925 42.7986 34.9471C43.044 34.7017 43.1819 34.3689 43.1819 34.0218C43.1819 33.6748 43.044 33.3419 42.7986 33.0965C42.5532 32.8511 42.2204 32.7133 41.8733 32.7133H18.3197C17.9727 32.7133 17.6398 32.8511 17.3944 33.0965C17.149 33.3419 17.0112 33.6748 17.0112 34.0218C17.0112 34.3689 17.149 34.7017 17.3944 34.9471C17.6398 35.1925 17.9727 35.3304 18.3197 35.3304ZM43.1819 41.873C43.1819 41.526 43.044 41.1932 42.7986 40.9478C42.5532 40.7024 42.2204 40.5645 41.8733 40.5645H28.788C28.4409 40.5645 28.1081 40.7024 27.8627 40.9478C27.6173 41.1932 27.4795 41.526 27.4795 41.873C27.4795 42.2201 27.6173 42.5529 27.8627 42.7983C28.1081 43.0437 28.4409 43.1816 28.788 43.1816H41.8733C42.2204 43.1816 42.5532 43.0437 42.7986 42.7983C43.044 42.5529 43.1819 42.2201 43.1819 41.873ZM28.788 19.6279H41.8733C42.2204 19.6279 42.5532 19.4901 42.7986 19.2447C43.044 18.9993 43.1819 18.6664 43.1819 18.3194C43.1819 17.9724 43.044 17.6395 42.7986 17.3941C42.5532 17.1487 42.2204 17.0109 41.8733 17.0109H28.788C28.4409 17.0109 28.1081 17.1487 27.8627 17.3941C27.6173 17.6395 27.4795 17.9724 27.4795 18.3194C27.4795 18.6664 27.6173 18.9993 27.8627 19.2447C28.1081 19.4901 28.4409 19.6279 28.788 19.6279Z" fill="#1B1E21"/>
</svg>
