<svg width="74" height="74" viewBox="0 0 74 74" fill="none" xmlns="http://www.w3.org/2000/svg">
<path d="M56.7394 59.1H56.3932V57.0017C56.3928 56.0413 56.1527 55.0962 55.6947 54.2521C55.2366 53.4079 54.5752 52.6915 53.7702 52.1676V22.253C54.1743 22.3349 54.5855 22.377 54.9978 22.3789C57.4548 22.3789 59.8112 21.4029 61.5486 19.6655C63.2859 17.9281 64.262 15.5717 64.262 13.1147C64.262 10.6577 63.2859 8.30127 61.5486 6.56389C59.8112 4.82651 57.4548 3.85046 54.9978 3.85046H18.4419C17.2111 3.85725 15.994 4.10789 14.8607 4.58789C13.7274 5.0679 12.7005 5.76775 11.8393 6.64699C10.9781 7.52624 10.2997 8.56745 9.84329 9.71044C9.38689 10.8534 9.16154 12.0756 9.18028 13.3062C9.18642 14.5094 9.43059 15.6995 9.89873 16.8079C10.3669 17.9164 11.0497 18.9212 11.9079 19.7645C12.7662 20.6079 13.7828 21.2731 14.8992 21.7218C16.0157 22.1705 17.2099 22.3938 18.413 22.3789C18.8359 22.3775 19.2576 22.3344 19.672 22.2504V52.1807C18.8671 52.7046 18.2056 53.421 17.7476 54.2652C17.2896 55.1093 17.0495 56.0544 17.0491 57.0148V59.1132H16.7029C15.4061 59.1145 14.1626 59.6294 13.2444 60.5451C12.3263 61.4608 11.8081 62.7029 11.8032 63.9997V68.2829C11.8032 68.6308 11.9414 68.9643 12.1873 69.2103C12.4333 69.4562 12.7669 69.5944 13.1147 69.5944H60.3276C60.6754 69.5944 61.009 69.4562 61.2549 69.2103C61.5009 68.9643 61.639 68.6308 61.639 68.2829V63.9997C61.6377 62.7006 61.121 61.4552 60.2024 60.5366C59.2839 59.6181 58.0384 59.1014 56.7394 59.1ZM18.253 19.756C17.3917 19.7492 16.5404 19.5714 15.7484 19.2329C14.9564 18.8944 14.2395 18.4018 13.6394 17.784C13.0394 17.1661 12.568 16.4351 12.2528 15.6336C11.9376 14.832 11.7848 13.9758 11.8032 13.1147C11.8053 11.3546 12.5054 9.66728 13.7499 8.42274C14.9945 7.1782 16.6818 6.47811 18.4419 6.47603H54.9978C56.7591 6.47603 58.4484 7.17573 59.6939 8.42121C60.9393 9.66669 61.639 11.3559 61.639 13.1173C61.639 14.8787 60.9393 16.5679 59.6939 17.8134C58.4484 19.0589 56.7591 19.7586 54.9978 19.7586C53.9543 19.7475 52.958 19.3223 52.228 18.5765C51.498 17.8308 51.0942 16.8257 51.1053 15.7822C51.1164 14.7387 51.5416 13.7424 52.2874 13.0125C53.0331 12.2825 54.0382 11.8786 55.0817 11.8898C55.4295 11.8898 55.7631 12.0279 56.009 12.2739C56.255 12.5198 56.3932 12.8534 56.3932 13.2012C56.3932 13.5491 56.255 13.8826 56.009 14.1286C55.7631 14.3745 55.4295 14.5127 55.0817 14.5127C54.7339 14.5127 54.4003 14.6509 54.1543 14.8968C53.9084 15.1428 53.7702 15.4764 53.7702 15.8242C53.7702 16.172 53.9084 16.5056 54.1543 16.7515C54.4003 16.9975 54.7339 17.1356 55.0817 17.1356C55.5984 17.1301 56.1089 17.0229 56.5841 16.8201C57.0594 16.6173 57.49 16.3229 57.8514 15.9536C58.2129 15.5844 58.4981 15.1476 58.6907 14.6681C58.8833 14.1886 58.9796 13.6759 58.9741 13.1593C58.9686 12.6426 58.8614 12.1321 58.6586 11.6568C58.4558 11.1816 58.1613 10.751 57.7921 10.3895C57.4229 10.0281 56.986 9.74289 56.5066 9.55026C56.0271 9.35763 55.5144 9.26132 54.9978 9.26683C53.9945 9.26857 53.0058 9.507 52.1121 9.96277C51.2183 10.4185 50.4447 11.0788 49.8542 11.8898H23.6064C22.9969 11.074 22.2052 10.412 21.2943 9.95661C20.3835 9.5012 19.3789 9.26499 18.3606 9.26683C17.3171 9.26683 16.3164 9.68135 15.5785 10.4192C14.8407 11.157 14.4262 12.1578 14.4262 13.2012C14.4262 14.2447 14.8407 15.2454 15.5785 15.9833C16.3164 16.7211 17.3171 17.1356 18.3606 17.1356C18.7084 17.1356 19.042 16.9975 19.2879 16.7515C19.5339 16.5056 19.672 16.172 19.672 15.8242C19.672 15.4764 19.5339 15.1428 19.2879 14.8968C19.042 14.6509 18.7084 14.5127 18.3606 14.5127C18.0127 14.5127 17.6792 14.3745 17.4332 14.1286C17.1873 13.8826 17.0491 13.5491 17.0491 13.2012C17.0517 13.0226 17.0902 12.8463 17.1623 12.6829C17.2344 12.5194 17.3387 12.3721 17.4689 12.2498C17.5991 12.1274 17.7525 12.0325 17.9201 11.9707C18.0877 11.9088 18.266 11.8813 18.4445 11.8898C19.488 11.9152 20.4786 12.354 21.1985 13.1098C21.9184 13.8656 22.3086 14.8764 22.2832 15.9199C22.2578 16.9634 21.8189 17.954 21.0631 18.6739C20.3073 19.3938 19.2965 19.7814 18.253 19.756ZM22.295 51.2312V21.0543C23.1153 20.433 23.7795 19.6289 24.2348 18.706C24.6901 17.7831 24.924 16.7667 24.9179 15.7376C24.9156 15.3255 24.8743 14.9145 24.7946 14.5101H48.6634C48.5705 14.9686 48.5231 15.4351 48.5217 15.9029C48.525 16.9103 48.7639 17.903 49.2193 18.8015C49.6747 19.7001 50.3341 20.4797 51.1447 21.0779V51.2417H22.295V51.2312ZM19.672 57.0017C19.6769 56.1657 20.0122 55.3655 20.6048 54.7759C21.1975 54.1862 21.9993 53.8548 22.8353 53.8542H50.607C51.443 53.8548 52.2448 54.1862 52.8374 54.7759C53.4301 55.3655 53.7654 56.1657 53.7702 57.0017V59.1H19.672V57.0017ZM59.0161 66.9689H14.4262V63.9997C14.4268 63.3963 14.667 62.8179 15.0939 62.3915C15.5208 61.9651 16.0995 61.7256 16.7029 61.7256H56.7394C57.3428 61.7256 57.9215 61.9651 58.3483 62.3915C58.7752 62.8179 59.0154 63.3963 59.0161 63.9997V66.9689Z" fill="#1B1E21"/>
<path d="M36.7211 19.7561C36.3732 19.7561 36.0397 19.8943 35.7937 20.1402C35.5478 20.3862 35.4096 20.7197 35.4096 21.0676V47.297C35.4096 47.6448 35.5478 47.9784 35.7937 48.2243C36.0397 48.4703 36.3732 48.6084 36.7211 48.6084C37.0689 48.6084 37.4025 48.4703 37.6484 48.2243C37.8944 47.9784 38.0325 47.6448 38.0325 47.297V21.0676C38.0325 20.7197 37.8944 20.3862 37.6484 20.1402C37.4025 19.8943 37.0689 19.7561 36.7211 19.7561ZM44.5899 25.002C44.242 25.002 43.9085 25.1402 43.6625 25.3861C43.4166 25.632 43.2784 25.9656 43.2784 26.3134V47.297C43.2784 47.6448 43.4166 47.9784 43.6625 48.2243C43.9085 48.4703 44.242 48.6084 44.5899 48.6084C44.9377 48.6084 45.2713 48.4703 45.5172 48.2243C45.7632 47.9784 45.9013 47.6448 45.9013 47.297V26.3134C45.9013 25.9656 45.7632 25.632 45.5172 25.3861C45.2713 25.1402 44.9377 25.002 44.5899 25.002ZM28.8522 25.002C28.5044 25.002 28.1708 25.1402 27.9249 25.3861C27.6789 25.632 27.5408 25.9656 27.5408 26.3134V47.297C27.5408 47.6448 27.6789 47.9784 27.9249 48.2243C28.1708 48.4703 28.5044 48.6084 28.8522 48.6084C29.2001 48.6084 29.5336 48.4703 29.7796 48.2243C30.0255 47.9784 30.1637 47.6448 30.1637 47.297V26.3134C30.1637 25.9656 30.0255 25.632 29.7796 25.3861C29.5336 25.1402 29.2001 25.002 28.8522 25.002Z" fill="#1B1E21"/>
</svg>
