<svg width="10" height="14" viewBox="0 0 10 14" fill="none" xmlns="http://www.w3.org/2000/svg">
<path d="M2.84819 9.73069V9.43036C2.84819 8.74212 2.90242 8.19361 3.01087 7.78483C3.11932 7.37606 3.27991 7.04862 3.49264 6.80252C3.70537 6.55225 3.96607 6.32701 4.27473 6.12679C4.54169 5.9516 4.77945 5.78267 4.988 5.61999C5.20073 5.45731 5.36758 5.28421 5.48855 5.10068C5.61368 4.91715 5.67625 4.70859 5.67625 4.475C5.67625 4.26644 5.62619 4.08291 5.52609 3.92441C5.42598 3.7659 5.29042 3.64285 5.1194 3.55526C4.94838 3.46766 4.75859 3.42387 4.55003 3.42387C4.32479 3.42387 4.11623 3.47601 3.92435 3.58029C3.73665 3.68457 3.5844 3.82847 3.46761 4.012C3.35499 4.19553 3.29868 4.40826 3.29868 4.65019H0.0952148C0.103557 3.73253 0.312116 2.98798 0.720891 2.41653C1.12967 1.84091 1.67192 1.41962 2.34765 1.15266C3.02338 0.881535 3.76585 0.745972 4.57506 0.745972C5.46769 0.745972 6.26438 0.877364 6.96514 1.14015C7.6659 1.39876 8.21858 1.79085 8.62319 2.31642C9.02779 2.83782 9.23009 3.49061 9.23009 4.27479C9.23009 4.7795 9.1425 5.22373 8.96731 5.60748C8.79629 5.98705 8.55645 6.32283 8.24778 6.61482C7.94328 6.90263 7.58665 7.16541 7.17787 7.40317C6.87755 7.57836 6.62519 7.7598 6.4208 7.94751C6.21642 8.13104 6.06208 8.34168 5.9578 8.57944C5.85352 8.81303 5.80138 9.09667 5.80138 9.43036V9.73069H2.84819ZM4.37484 13.9352C3.89099 13.9352 3.47595 13.7663 3.12975 13.4284C2.78771 13.0864 2.61878 12.6714 2.62295 12.1833C2.61878 11.7078 2.78771 11.3011 3.12975 10.9633C3.47595 10.6254 3.89099 10.4565 4.37484 10.4565C4.83367 10.4565 5.23828 10.6254 5.58865 10.9633C5.9432 11.3011 6.12256 11.7078 6.12674 12.1833C6.12256 12.5087 6.03706 12.8048 5.87021 13.0718C5.70753 13.3346 5.4948 13.5452 5.23202 13.7037C4.96923 13.8581 4.68351 13.9352 4.37484 13.9352Z" fill="#D2DE32"/>
</svg>
