<svg width="41" height="41" viewBox="0 0 41 41" fill="none" xmlns="http://www.w3.org/2000/svg">
<circle cx="20.5" cy="20.5" r="20.5" fill="#D2DE32"/>
<path d="M16.65 27.95C15.85 27.95 15.15 27.8 14.55 27.5C13.95 27.1667 13.4667 26.7333 13.1 26.2C12.7667 25.6667 12.5 25.0333 12.3 24.3C12.1 23.5667 12 22.8 12 22C12 20.3667 12.4167 18.8333 13.25 17.4C14.1167 15.9667 15.45 14.8333 17.25 14L17.7 14.9C16.7667 15.3333 15.9333 15.9667 15.2 16.8C14.5 17.6 14.0833 18.45 13.95 19.35C13.75 20.05 13.7333 20.7333 13.9 21.4C14.6333 20.6 15.6167 20.2 16.85 20.2C17.9833 20.2 18.9167 20.55 19.65 21.25C20.3833 21.9167 20.75 22.85 20.75 24.05C20.75 25.2167 20.3667 26.1667 19.6 26.9C18.8333 27.6 17.85 27.95 16.65 27.95ZM26.95 27.95C26.15 27.95 25.45 27.8 24.85 27.5C24.25 27.1667 23.7667 26.7333 23.4 26.2C23.0667 25.6667 22.8 25.0333 22.6 24.3C22.4 23.5667 22.3 22.8 22.3 22C22.3 20.3667 22.7167 18.8333 23.55 17.4C24.4167 15.9667 25.75 14.8333 27.55 14L28 14.9C27.0667 15.3333 26.2333 15.9667 25.5 16.8C24.8 17.6 24.3833 18.45 24.25 19.35C24.05 20.05 24.0333 20.7333 24.2 21.4C24.9333 20.6 25.9167 20.2 27.15 20.2C28.2833 20.2 29.2167 20.55 29.95 21.25C30.6833 21.9167 31.05 22.85 31.05 24.05C31.05 25.2167 30.6667 26.1667 29.9 26.9C29.1333 27.6 28.15 27.95 26.95 27.95Z" fill="#003D35"/>
</svg>
